<svg width="22" height="19" viewBox="0 0 22 19" fill="none" xmlns="http://www.w3.org/2000/svg">
<path d="M3.79495 10.6762V13.4862C3.79495 14.2162 4.19495 14.8962 4.83495 15.2462L9.83495 17.9762C10.435 18.3062 11.155 18.3062 11.755 17.9762L16.755 15.2462C17.395 14.8962 17.795 14.2162 17.795 13.4862V10.6762L11.755 13.9762C11.155 14.3062 10.435 14.3062 9.83495 13.9762L3.79495 10.6762ZM9.83495 1.01625L1.40495 5.61625C0.714951 5.99625 0.714951 6.99625 1.40495 7.37625L9.83495 11.9762C10.435 12.3062 11.155 12.3062 11.755 11.9762L19.795 7.58625V13.4962C19.795 14.0462 20.245 14.4962 20.795 14.4962C21.3449 14.4962 21.795 14.0462 21.795 13.4962V7.08625C21.795 6.71625 21.5949 6.38625 21.275 6.20625L11.755 1.01625C11.4595 0.85867 11.1298 0.776245 10.795 0.776245C10.4601 0.776245 10.1304 0.85867 9.83495 1.01625Z" fill="#333333"/>
</svg>
