<svg width="20" height="21" viewBox="0 0 20 21" fill="none" xmlns="http://www.w3.org/2000/svg">
<path d="M18.3334 10.5C18.3334 5.89752 14.6026 2.16669 10.0001 2.16669C5.39758 2.16669 1.66675 5.89752 1.66675 10.5C1.66675 15.1025 5.39758 18.8334 10.0001 18.8334C12.0788 18.8334 13.9792 18.0721 15.4392 16.8138M16.2501 12.1667C15.587 12.1667 14.9512 11.9033 14.4823 11.4345C14.0135 10.9656 13.7501 10.3297 13.7501 9.66669V10.2917L14.2195 11.125L15.0001 11.8318L15.6251 12.0873L16.2501 12.1667ZM16.2501 12.1667C16.9131 12.1667 17.549 11.9033 18.0178 11.4345M16.2501 12.1667L16.8751 12.0873L17.2917 11.9393L18.0178 11.4345M18.0178 11.4345C18.4867 10.9656 18.303 10.2917 18.2708 9.66669M18.0178 11.4345L18.2708 10.9167L18.303 10.2917L18.2708 9.66669M18.2708 9.66669L18.0178 8.20835M13.7501 10.0834V6.33335" stroke="black" stroke-width="1.80556" stroke-linecap="round" stroke-linejoin="round"/>
<path d="M9.99984 13.8334C10.8839 13.8334 11.7317 13.4822 12.3569 12.857C12.982 12.2319 13.3332 11.3841 13.3332 10.5C13.3332 9.61597 12.982 8.76812 12.3569 8.143C11.7317 7.51788 10.8839 7.16669 9.99984 7.16669C9.11578 7.16669 8.26794 7.51788 7.64281 8.143C7.01769 8.76812 6.6665 9.61597 6.6665 10.5C6.6665 11.3841 7.01769 12.2319 7.64281 12.857C8.26794 13.4822 9.11578 13.8334 9.99984 13.8334Z" fill="#2F88FF" stroke="black" stroke-width="1.80556" stroke-linejoin="round"/>
</svg>
