<svg width="23" height="17" viewBox="0 0 23 17" fill="none" xmlns="http://www.w3.org/2000/svg">
<path d="M20.7573 7.462C21.2313 8.082 21.2313 8.919 20.7573 9.538C19.2643 11.487 15.6823 15.5 11.5003 15.5C7.31826 15.5 3.73626 11.487 2.24326 9.538C2.01264 9.24113 1.88745 8.87592 1.88745 8.5C1.88745 8.12408 2.01264 7.75887 2.24326 7.462C3.73626 5.513 7.31826 1.5 11.5003 1.5C15.6823 1.5 19.2643 5.513 20.7573 7.462V7.462Z" stroke="#333333" stroke-width="2" stroke-linecap="round" stroke-linejoin="round"/>
<path d="M11.5002 11.5C13.1571 11.5 14.5002 10.1569 14.5002 8.5C14.5002 6.84315 13.1571 5.5 11.5002 5.5C9.84339 5.5 8.50024 6.84315 8.50024 8.5C8.50024 10.1569 9.84339 11.5 11.5002 11.5Z" stroke="#333333" stroke-width="2" stroke-linecap="round" stroke-linejoin="round"/>
</svg>
