<svg width="21" height="21" viewBox="0 0 21 21" fill="none" xmlns="http://www.w3.org/2000/svg">
<path d="M10.8875 2.5C15.2985 2.5 18.8875 6.089 18.8875 10.5C18.8875 14.911 15.2985 18.5 10.8875 18.5C6.47645 18.5 2.88745 14.911 2.88745 10.5C2.88745 6.089 6.47645 2.5 10.8875 2.5ZM10.8875 0.5C5.36445 0.5 0.887451 4.977 0.887451 10.5C0.887451 16.023 5.36445 20.5 10.8875 20.5C16.4105 20.5 20.8875 16.023 20.8875 10.5C20.8875 4.977 16.4105 0.5 10.8875 0.5ZM14.6875 13.9L11.8875 10.167V5.5H9.88745V10.833L13.0875 15.099L14.6875 13.9Z" fill="#333333"/>
</svg>
