<svg width="21" height="20" viewBox="0 0 21 20" fill="none" xmlns="http://www.w3.org/2000/svg">
<path d="M16.8875 6H6.88745C5.78745 6 4.88745 6.9 4.88745 8V14C4.88745 14.5304 5.09816 15.0391 5.47324 15.4142C5.84831 15.7893 6.35702 16 6.88745 16H16.8875C17.9975 16 18.8875 15.11 18.8875 14V8C18.8875 7.46957 18.6767 6.96086 18.3017 6.58579C17.9266 6.21071 17.4179 6 16.8875 6ZM12.8875 14H6.88745V12H12.8875V14ZM16.8875 10H6.88745V8H16.8875V10ZM20.8875 4H2.88745V20H0.887451V0H2.88745V2H20.8875V4Z" fill="#333333"/>
</svg>
