<svg width="62" height="63" viewBox="0 0 62 63" fill="none" xmlns="http://www.w3.org/2000/svg">
<path d="M26.5447 53.3333C32.3873 53.3321 38.0616 51.3514 42.664 47.7067L57.1342 62.36L61.7886 57.6467L47.3184 42.9933C50.9195 38.3322 52.8766 32.5848 52.878 26.6667C52.878 11.9633 41.0642 0 26.5447 0C12.0252 0 0.211365 11.9633 0.211365 26.6667C0.211365 41.37 12.0252 53.3333 26.5447 53.3333ZM26.5447 6.66667C37.4368 6.66667 46.2947 15.6367 46.2947 26.6667C46.2947 37.6967 37.4368 46.6667 26.5447 46.6667C15.6526 46.6667 6.7947 37.6967 6.7947 26.6667C6.7947 15.6367 15.6526 6.66667 26.5447 6.66667Z" fill="#333333"/>
<path d="M31.1925 21.9533C32.4401 23.22 33.128 24.8933 33.128 26.6667H39.7114C39.7143 24.9148 39.3742 23.1796 38.7109 21.5616C38.0476 19.9436 37.0742 18.4748 35.8469 17.24C30.8634 12.2 22.2227 12.2 17.2424 17.24L21.8903 21.96C24.3919 19.4333 28.704 19.44 31.1925 21.9533Z" fill="#333333"/>
</svg>
