<svg width="60" height="60" viewBox="0 0 60 60" fill="none" xmlns="http://www.w3.org/2000/svg">
<path d="M57.0667 12.3667L47.6333 2.93333C45.7598 1.05743 43.2179 0.00233403 40.5667 0H19.4333C16.7821 0.00233403 14.2402 1.05743 12.3667 2.93333L2.93333 12.3667C1.05743 14.2402 0.00233403 16.7821 0 19.4333V50C0 52.6522 1.05357 55.1957 2.92893 57.0711C4.8043 58.9464 7.34784 60 10 60H50C52.6522 60 55.1957 58.9464 57.0711 57.0711C58.9464 55.1957 60 52.6522 60 50V19.4333C59.9977 16.7821 58.9426 14.2402 57.0667 12.3667ZM17.0667 7.63333C17.7054 7.02422 18.5508 6.67894 19.4333 6.66667H40.5667C41.4492 6.67894 42.2946 7.02422 42.9333 7.63333L48.6333 13.3333H11.3667L17.0667 7.63333ZM50 53.3333H10C9.11594 53.3333 8.2681 52.9821 7.64298 52.357C7.01786 51.7319 6.66667 50.8841 6.66667 50V20H53.3333V50C53.3333 50.8841 52.9821 51.7319 52.357 52.357C51.7319 52.9821 50.8841 53.3333 50 53.3333Z" fill="#333333"/>
<path d="M40 26.6667C39.1159 26.6667 38.2681 27.0179 37.643 27.643C37.0179 28.2681 36.6667 29.1159 36.6667 30C36.6667 31.7681 35.9643 33.4638 34.714 34.714C33.4638 35.9643 31.7681 36.6667 30 36.6667C28.2319 36.6667 26.5362 35.9643 25.286 34.714C24.0357 33.4638 23.3333 31.7681 23.3333 30C23.3333 29.1159 22.9821 28.2681 22.357 27.643C21.7319 27.0179 20.8841 26.6667 20 26.6667C19.1159 26.6667 18.2681 27.0179 17.643 27.643C17.0179 28.2681 16.6667 29.1159 16.6667 30C16.6667 33.5362 18.0714 36.9276 20.5719 39.4281C23.0724 41.9286 26.4638 43.3333 30 43.3333C33.5362 43.3333 36.9276 41.9286 39.4281 39.4281C41.9286 36.9276 43.3333 33.5362 43.3333 30C43.3333 29.1159 42.9821 28.2681 42.357 27.643C41.7319 27.0179 40.8841 26.6667 40 26.6667Z" fill="#333333"/>
</svg>
