<svg width="25" height="25" viewBox="0 0 25 25" fill="none" xmlns="http://www.w3.org/2000/svg">
<path d="M19.4697 3.06741L21.0717 1.57423C21.2481 1.40982 21.352 1.18208 21.3604 0.941109C21.3689 0.700136 21.2813 0.465667 21.1169 0.289283C20.9525 0.112899 20.7248 0.00904826 20.4838 0.000577158C20.2428 -0.00789395 20.0083 0.0797083 19.832 0.244112L18.087 1.8707C16.3913 0.654248 14.3569 2.13568e-06 12.27 2.13568e-06C10.1831 2.13568e-06 8.14876 0.654248 6.45309 1.8707L4.70809 0.244112C4.53172 0.0797083 4.29727 -0.00789998 4.0563 0.000560469C3.81534 0.00902092 3.58761 0.112857 3.4232 0.289226C3.2588 0.465595 3.17119 0.70005 3.17965 0.941012C3.18811 1.18198 3.29195 1.40971 3.46832 1.57411L5.07036 3.06729C3.27251 4.92716 2.2683 7.41325 2.27002 10V14.5455C2.27002 17.1976 3.32359 19.7412 5.19895 21.6165C7.07432 23.4919 9.61786 24.5455 12.27 24.5455C14.9222 24.5455 17.4657 23.4919 19.3411 21.6165C21.2165 19.7412 22.27 17.1976 22.27 14.5455V10C22.2717 7.41329 21.2675 4.92725 19.4697 3.06741ZM12.27 1.8182C14.4392 1.82064 16.5189 2.68343 18.0527 4.21729C19.5866 5.75115 20.4494 7.83082 20.4518 10V11.3637H4.0882V10C4.09064 7.83082 4.95343 5.75115 6.48729 4.21729C8.02115 2.68343 10.1008 1.82064 12.27 1.8182ZM12.27 22.7273C10.1008 22.7249 8.02115 21.8621 6.48729 20.3282C4.95343 18.7943 4.09064 16.7147 4.0882 14.5455V13.1818H20.4518V14.5455C20.4494 16.7147 19.5866 18.7943 18.0527 20.3282C16.5189 21.8621 14.4392 22.7249 12.27 22.7273ZM14.0882 8.18184C14.0882 7.91214 14.1682 7.64849 14.318 7.42424C14.4679 7.19999 14.6808 7.02521 14.93 6.922C15.1792 6.81879 15.4534 6.79179 15.7179 6.8444C15.9824 6.89702 16.2254 7.02689 16.4161 7.2176C16.6068 7.40831 16.7367 7.65129 16.7893 7.91581C16.8419 8.18033 16.8149 8.45451 16.7117 8.70368C16.6085 8.95285 16.4337 9.16582 16.2094 9.31566C15.9852 9.4655 15.7215 9.54547 15.4518 9.54547C15.0902 9.54547 14.7433 9.40181 14.4876 9.14608C14.2319 8.89034 14.0882 8.5435 14.0882 8.18184ZM7.72457 8.18184C7.72457 7.91214 7.80454 7.64849 7.95438 7.42424C8.10422 7.19999 8.31719 7.02521 8.56636 6.922C8.81553 6.81879 9.08972 6.79179 9.35423 6.8444C9.61875 6.89702 9.86173 7.02689 10.0524 7.2176C10.2431 7.40831 10.373 7.65129 10.4256 7.91581C10.4783 8.18033 10.4512 8.45451 10.348 8.70368C10.2448 8.95285 10.07 9.16582 9.8458 9.31566C9.62155 9.4655 9.3579 9.54547 9.0882 9.54547C8.72654 9.54547 8.3797 9.40181 8.12397 9.14608C7.86823 8.89034 7.72457 8.5435 7.72457 8.18184Z" fill="black"/>
</svg>
