<svg width="5" height="16" viewBox="0 0 5 16" fill="none" xmlns="http://www.w3.org/2000/svg">
<path d="M0.516663 8C0.516663 8.53043 0.727377 9.03914 1.10245 9.41421C1.47752 9.78929 1.98623 10 2.51666 10C3.0471 10 3.5558 9.78929 3.93088 9.41421C4.30595 9.03914 4.51666 8.53043 4.51666 8C4.51666 7.46957 4.30595 6.96086 3.93088 6.58579C3.5558 6.21071 3.0471 6 2.51666 6C1.98623 6 1.47752 6.21071 1.10245 6.58579C0.727377 6.96086 0.516663 7.46957 0.516663 8ZM0.516663 2C0.516663 2.53043 0.727377 3.03914 1.10245 3.41421C1.47752 3.78929 1.98623 4 2.51666 4C3.0471 4 3.5558 3.78929 3.93088 3.41421C4.30595 3.03914 4.51666 2.53043 4.51666 2C4.51666 1.46957 4.30595 0.960859 3.93088 0.585786C3.5558 0.210714 3.0471 0 2.51666 0C1.98623 0 1.47752 0.210714 1.10245 0.585786C0.727377 0.960859 0.516663 1.46957 0.516663 2ZM0.516663 14C0.516663 14.5304 0.727377 15.0391 1.10245 15.4142C1.47752 15.7893 1.98623 16 2.51666 16C3.0471 16 3.5558 15.7893 3.93088 15.4142C4.30595 15.0391 4.51666 14.5304 4.51666 14C4.51666 13.4696 4.30595 12.9609 3.93088 12.5858C3.5558 12.2107 3.0471 12 2.51666 12C1.98623 12 1.47752 12.2107 1.10245 12.5858C0.727377 12.9609 0.516663 13.4696 0.516663 14Z" fill="#888888"/>
</svg>
