<svg width="21" height="20" viewBox="0 0 21 20" fill="none" xmlns="http://www.w3.org/2000/svg">
<path d="M6.35 10.8334V4.16669C6.35 3.94568 6.2622 3.73372 6.10592 3.57744C5.94964 3.42116 5.73768 3.33336 5.51666 3.33336H3.85C3.62898 3.33336 3.41702 3.42116 3.26074 3.57744C3.10446 3.73372 3.01666 3.94568 3.01666 4.16669V10C3.01666 10.221 3.10446 10.433 3.26074 10.5893C3.41702 10.7456 3.62898 10.8334 3.85 10.8334H6.35ZM6.35 10.8334C7.23405 10.8334 8.0819 11.1845 8.70702 11.8097C9.33214 12.4348 9.68333 13.2826 9.68333 14.1667V15C9.68333 15.4421 9.85892 15.866 10.1715 16.1785C10.484 16.4911 10.908 16.6667 11.35 16.6667C11.792 16.6667 12.2159 16.4911 12.5285 16.1785C12.8411 15.866 13.0167 15.4421 13.0167 15V10.8334H15.5167C15.9587 10.8334 16.3826 10.6578 16.6952 10.3452C17.0077 10.0326 17.1833 9.60872 17.1833 9.16669L16.35 5.00003C16.2301 4.4888 16.0028 4.04982 15.7022 3.74922C15.4016 3.44862 15.044 3.30267 14.6833 3.33336H8.85C8.18695 3.33336 7.55107 3.59675 7.08223 4.06559C6.61339 4.53443 6.35 5.17032 6.35 5.83336" stroke="#888888" stroke-width="2" stroke-linecap="round" stroke-linejoin="round"/>
</svg>
