<svg width="22" height="22" viewBox="0 0 22 22" fill="none" xmlns="http://www.w3.org/2000/svg">
<path d="M13 17.7654C16.771 17.7654 18.657 17.7654 19.828 16.5934C21 15.4224 21 13.5364 21 9.76538C21 5.99438 21 4.10838 19.828 2.93738C18.657 1.76538 16.771 1.76538 13 1.76538H9C5.229 1.76538 3.343 1.76538 2.172 2.93738C1 4.10838 1 5.99438 1 9.76538C1 13.5364 1 15.4224 2.172 16.5934C2.825 17.2474 3.7 17.5364 5 17.6634" stroke="black" stroke-width="2" stroke-linecap="round" stroke-linejoin="round"/>
<path d="M11 9.76538V9.77538" stroke="black" stroke-width="2" stroke-linecap="round"/>
<path d="M7 9.76538V9.77538" stroke="black" stroke-width="2" stroke-linecap="round"/>
<path d="M15 9.76538V9.77538" stroke="black" stroke-width="2" stroke-linecap="round"/>
<path d="M13 17.7654C11.764 17.7654 10.402 18.2654 9.159 18.9104C7.161 19.9474 6.162 20.4664 5.67 20.1354C5.178 19.8054 5.271 18.7804 5.458 16.7314L5.5 16.2654" stroke="black" stroke-width="2" stroke-linecap="round"/>
</svg>
