<svg width="21" height="20" viewBox="0 0 21 20" fill="none" xmlns="http://www.w3.org/2000/svg">
<path d="M10.5167 2C6.10546 2 2.51666 4.8712 2.51666 8.4C2.51666 10.7264 4.03506 12.8128 6.51666 13.9472V18L10.7887 14.796C15.0743 14.6816 18.5167 11.856 18.5167 8.4C18.5167 4.8712 14.9279 2 10.5167 2ZM10.5167 13.2H10.2503L8.11666 14.8V12.8664L7.60386 12.6688C5.45266 11.8408 4.11666 10.2048 4.11666 8.4C4.11666 5.7528 6.98786 3.6 10.5167 3.6C14.0455 3.6 16.9167 5.7528 16.9167 8.4C16.9167 11.0472 14.0455 13.2 10.5167 13.2Z" fill="#888888"/>
</svg>
