<svg width="21" height="20" viewBox="0 0 21 20" fill="none" xmlns="http://www.w3.org/2000/svg">
<path d="M6.35 9.16671V15.8334C6.35 16.0544 6.2622 16.2664 6.10592 16.4226C5.94964 16.5789 5.73768 16.6667 5.51666 16.6667H3.85C3.62898 16.6667 3.41702 16.5789 3.26074 16.4226C3.10446 16.2664 3.01666 16.0544 3.01666 15.8334V10C3.01666 9.77903 3.10446 9.56707 3.26074 9.41079C3.41702 9.25451 3.62898 9.16671 3.85 9.16671H6.35ZM6.35 9.16671C7.23405 9.16671 8.0819 8.81552 8.70702 8.1904C9.33214 7.56528 9.68333 6.71743 9.68333 5.83337V5.00004C9.68333 4.55801 9.85892 4.13409 10.1715 3.82153C10.484 3.50897 10.908 3.33337 11.35 3.33337C11.792 3.33337 12.2159 3.50897 12.5285 3.82153C12.8411 4.13409 13.0167 4.55801 13.0167 5.00004V9.16671H15.5167C15.9587 9.16671 16.3826 9.3423 16.6952 9.65486C17.0077 9.96742 17.1833 10.3913 17.1833 10.8334L16.35 15C16.2301 15.5113 16.0028 15.9502 15.7022 16.2508C15.4016 16.5514 15.044 16.6974 14.6833 16.6667H8.85C8.18695 16.6667 7.55107 16.4033 7.08223 15.9345C6.61339 15.4656 6.35 14.8297 6.35 14.1667" stroke="#888888" stroke-width="2" stroke-linecap="round" stroke-linejoin="round"/>
</svg>
