<svg width="15" height="18" viewBox="0 0 15 18" fill="none" xmlns="http://www.w3.org/2000/svg">
<path d="M7.48169 7.31665H8.72336L8.42169 8.63832H7.15836L7.48169 7.31665Z" fill="#696969"/>
<path d="M0.833344 2.74999C0.833344 2.19746 1.05284 1.66755 1.44354 1.27685C1.83424 0.88615 2.36414 0.666656 2.91668 0.666656H12.5C12.7736 0.666656 13.0445 0.720544 13.2973 0.825241C13.55 0.929938 13.7797 1.0834 13.9731 1.27685C14.1666 1.47031 14.3201 1.69997 14.4248 1.95273C14.5295 2.20549 14.5833 2.4764 14.5833 2.74999V14.625C14.5833 14.7908 14.5175 14.9497 14.4003 15.0669C14.2831 15.1841 14.1241 15.25 13.9583 15.25H2.08334C2.08334 15.471 2.17114 15.683 2.32742 15.8392C2.4837 15.9955 2.69566 16.0833 2.91668 16.0833H13.9583C14.1241 16.0833 14.2831 16.1492 14.4003 16.2664C14.5175 16.3836 14.5833 16.5426 14.5833 16.7083C14.5833 16.8741 14.5175 17.0331 14.4003 17.1503C14.2831 17.2675 14.1241 17.3333 13.9583 17.3333H2.91668C2.36414 17.3333 1.83424 17.1138 1.44354 16.7231C1.05284 16.3324 0.833344 15.8025 0.833344 15.25V2.74999ZM6.68668 5.30832L6.50084 6.06666H5.60834L5.52334 6.07249C5.37372 6.09303 5.23659 6.16706 5.13732 6.28088C5.03805 6.3947 4.98335 6.54063 4.98334 6.69166L4.98918 6.77666C5.00972 6.92628 5.08374 7.06341 5.19757 7.16268C5.31139 7.26195 5.45731 7.31665 5.60834 7.31666H6.19418L5.87084 8.63832L5.20751 8.63916L5.12251 8.64499C4.97288 8.66553 4.83575 8.73956 4.73648 8.85338C4.63721 8.96721 4.58252 9.11313 4.58251 9.26416L4.58834 9.34916C4.60888 9.49879 4.68291 9.63591 4.79673 9.73518C4.91056 9.83445 5.05648 9.88915 5.20751 9.88916H5.56501L5.46251 10.3108L5.44751 10.3942C5.4317 10.5445 5.47095 10.6956 5.55799 10.8192C5.64503 10.9429 5.77394 11.0308 5.92084 11.0667L6.00418 11.0817C6.15456 11.0975 6.30558 11.0582 6.42924 10.9712C6.5529 10.8841 6.64081 10.7552 6.67668 10.6083L6.85168 9.88832H8.13418L8.03584 10.32L8.02251 10.4033C8.00883 10.554 8.05028 10.7045 8.13916 10.827C8.22805 10.9494 8.35833 11.0355 8.50584 11.0692L8.58918 11.0825C8.73986 11.0962 8.8904 11.0547 9.01284 10.9658C9.13529 10.877 9.22133 10.7467 9.25501 10.5992L9.41668 9.88832L10.2 9.88916L10.285 9.88332C10.4348 9.86297 10.5721 9.78902 10.6716 9.67518C10.771 9.56134 10.8258 9.41531 10.8258 9.26416L10.82 9.17916C10.7995 9.02953 10.7254 8.8924 10.6116 8.79313C10.4978 8.69386 10.3519 8.63916 10.2008 8.63916H9.70334L10.0058 7.31666H10.6058L10.6908 7.31082C10.8405 7.29028 10.9776 7.21626 11.0769 7.10243C11.1761 6.98861 11.2308 6.84269 11.2308 6.69166L11.225 6.60749C11.2047 6.45771 11.1307 6.32038 11.0169 6.22094C10.903 6.1215 10.757 6.06669 10.6058 6.06666H10.2925L10.4008 5.59666L10.4142 5.51332C10.4276 5.36277 10.3861 5.21244 10.2972 5.09017C10.2084 4.9679 10.0782 4.88198 9.93084 4.84832L9.84751 4.83499C9.69696 4.82152 9.54663 4.86307 9.42436 4.95193C9.30209 5.0408 9.21617 5.17097 9.18251 5.31832L9.01001 6.06666H7.78668L7.90001 5.60582L7.91501 5.52249C7.93232 5.36446 7.88877 5.20576 7.7932 5.07872C7.69763 4.95167 7.55724 4.86581 7.4006 4.83863C7.24397 4.81144 7.08286 4.84497 6.95007 4.93238C6.81728 5.0198 6.72279 5.15453 6.68584 5.30916L6.68668 5.30832Z" fill="#696969"/>
</svg>
