<svg width="23" height="23" viewBox="0 0 23 23" fill="none" xmlns="http://www.w3.org/2000/svg">
<path d="M17.5988 5.21064L20.9725 1.86913C21.1158 1.72726 21.3527 1.75058 21.4656 1.91764L22.2438 3.06984C22.351 3.22855 22.2967 3.44517 22.1273 3.53452L17.9753 5.72383C17.9052 5.7608 17.8239 5.77059 17.747 5.7513C17.6701 5.73202 17.603 5.68503 17.5587 5.61934C17.5167 5.55722 17.4977 5.48237 17.505 5.40775C17.5124 5.33312 17.5455 5.2634 17.5988 5.21064ZM18.1568 8.08021C18.1694 8.14201 18.2044 8.19698 18.2551 8.23454C18.3058 8.27211 18.3685 8.28963 18.4314 8.28375L22.1501 7.93659C22.1859 7.93325 22.2206 7.9224 22.2519 7.90475C22.2833 7.8871 22.3105 7.86305 22.332 7.83415C22.3534 7.80526 22.3685 7.77218 22.3762 7.73707C22.384 7.70195 22.3843 7.66559 22.3771 7.63036L22.1552 6.54644C22.123 6.3893 21.9559 6.30009 21.8075 6.36087L18.3106 7.7919C18.2554 7.8145 18.2098 7.85568 18.1817 7.90832C18.1536 7.96096 18.1448 8.02175 18.1568 8.08021ZM15.3802 4.13409C15.4328 4.16885 15.4964 4.18294 15.5588 4.17367C15.6212 4.1644 15.678 4.13242 15.7183 4.08387L18.1023 1.20887C18.1253 1.18118 18.1421 1.14897 18.1518 1.11433C18.1615 1.07969 18.1637 1.0434 18.1585 1.00783C18.1532 0.972253 18.1404 0.938192 18.1211 0.907862C18.1018 0.877531 18.0763 0.851612 18.0463 0.831792L17.123 0.222247C16.9891 0.133886 16.8079 0.18896 16.7459 0.336932L15.2851 3.82148C15.262 3.8765 15.2589 3.93784 15.2763 3.99492C15.2936 4.052 15.3304 4.10123 15.3802 4.13409Z" fill="#FFD469"/>
<path d="M9.81094 21.5551L9.09273 21.9752C8.50893 22.3166 7.75891 22.1201 7.4175 21.5363L5.51327 18.28C5.17186 17.6962 5.36835 16.9462 5.95215 16.6048L6.67036 16.1848C7.25417 15.8434 8.00418 16.0399 8.34559 16.6237L10.2498 19.8799C10.5913 20.4637 10.3947 21.2137 9.81094 21.5551Z" fill="#00B1FF"/>
<path d="M5.40868 18.3596L12.3676 14.5709L7.61044 7.1225L1.31998 11.7959C1.27942 11.8218 -0.420783 13.3774 1.44639 16.301C3.31357 19.2245 5.40868 18.3596 5.40868 18.3596Z" fill="#0096D1"/>
<path d="M16.2856 6.83847C18.3671 10.0975 19.6281 13.6281 18.7573 14.1842C17.8865 14.7403 15.2136 12.1115 13.1322 8.85245C11.0507 5.59341 9.78973 2.06291 10.6605 1.50674C11.5313 0.950558 14.2042 3.57943 16.2856 6.83847Z" fill="#727272"/>
<path d="M15.3056 11.3607C16.027 10.8999 15.8203 9.28723 14.8439 7.75862C13.8676 6.23001 12.4913 5.36434 11.7699 5.82511C11.0485 6.28587 11.2552 7.89858 12.2315 9.42719C13.2079 10.9558 14.5842 11.8215 15.3056 11.3607Z" fill="#B2B2B2"/>
<path d="M18.7193 14.2085C17.9587 14.6943 15.3751 12.0084 13.2937 8.74934C11.2122 5.49031 9.86187 2.01681 10.6225 1.53103C10.6663 1.50304 10.7154 1.48458 10.7691 1.47438C10.4103 1.46616 10.0587 1.6533 9.85069 2.05113C8.93392 3.80434 6.59426 7.69413 6.59426 7.69413C6.59426 7.69413 5.43325 9.25741 7.47419 12.4529C9.51512 15.6484 11.4855 15.2486 11.4855 15.2486C11.4855 15.2486 15.9617 14.7913 17.9284 14.6974C18.394 14.6751 18.7183 14.4166 18.853 14.0678C18.8173 14.1267 18.773 14.1742 18.7193 14.2085Z" fill="#D1D1D1"/>
<path d="M2.37601 13.8438C2.26963 13.8439 2.16494 13.8172 2.07163 13.7661C1.97832 13.715 1.89941 13.6412 1.8422 13.5515C1.65412 13.257 1.74037 12.8659 2.03487 12.6778L4.63634 11.0163C4.93081 10.8282 5.32203 10.9144 5.51012 11.209C5.69821 11.5035 5.61196 11.8946 5.31745 12.0827L2.71598 13.7442C2.61452 13.8092 2.49652 13.8438 2.37601 13.8438Z" fill="#00B1FF"/>
</svg>
