<svg width="14" height="14" viewBox="0 0 14 14" fill="none" xmlns="http://www.w3.org/2000/svg">
<path d="M3.25 0.75C2.58696 0.75 1.95107 1.01339 1.48223 1.48223C1.01339 1.95107 0.75 2.58696 0.75 3.25V4.25C0.75 4.38261 0.802679 4.50979 0.896447 4.60355C0.990215 4.69732 1.11739 4.75 1.25 4.75C1.38261 4.75 1.50979 4.69732 1.60355 4.60355C1.69732 4.50979 1.75 4.38261 1.75 4.25V3.25C1.75 2.85218 1.90804 2.47064 2.18934 2.18934C2.47064 1.90804 2.85218 1.75 3.25 1.75H4.25C4.38261 1.75 4.50979 1.69732 4.60355 1.60355C4.69732 1.50979 4.75 1.38261 4.75 1.25C4.75 1.11739 4.69732 0.990215 4.60355 0.896447C4.50979 0.802679 4.38261 0.75 4.25 0.75H3.25ZM9.25 0.75C9.11739 0.75 8.99021 0.802679 8.89645 0.896447C8.80268 0.990215 8.75 1.11739 8.75 1.25C8.75 1.38261 8.80268 1.50979 8.89645 1.60355C8.99021 1.69732 9.11739 1.75 9.25 1.75H10.25C10.6478 1.75 11.0294 1.90804 11.3107 2.18934C11.592 2.47064 11.75 2.85218 11.75 3.25V4.25C11.75 4.38261 11.8027 4.50979 11.8964 4.60355C11.9902 4.69732 12.1174 4.75 12.25 4.75C12.3826 4.75 12.5098 4.69732 12.6036 4.60355C12.6973 4.50979 12.75 4.38261 12.75 4.25V3.25C12.75 2.58696 12.4866 1.95107 12.0178 1.48223C11.5489 1.01339 10.913 0.75 10.25 0.75H9.25ZM1.75 9.25C1.75 9.11739 1.69732 8.99021 1.60355 8.89645C1.50979 8.80268 1.38261 8.75 1.25 8.75C1.11739 8.75 0.990215 8.80268 0.896447 8.89645C0.802679 8.99021 0.75 9.11739 0.75 9.25V10.25C0.75 10.913 1.01339 11.5489 1.48223 12.0178C1.95107 12.4866 2.58696 12.75 3.25 12.75H4.25C4.38261 12.75 4.50979 12.6973 4.60355 12.6036C4.69732 12.5098 4.75 12.3826 4.75 12.25C4.75 12.1174 4.69732 11.9902 4.60355 11.8964C4.50979 11.8027 4.38261 11.75 4.25 11.75H3.25C2.85218 11.75 2.47064 11.592 2.18934 11.3107C1.90804 11.0294 1.75 10.6478 1.75 10.25V9.25ZM12.75 9.25C12.75 9.11739 12.6973 8.99021 12.6036 8.89645C12.5098 8.80268 12.3826 8.75 12.25 8.75C12.1174 8.75 11.9902 8.80268 11.8964 8.89645C11.8027 8.99021 11.75 9.11739 11.75 9.25V10.25C11.75 10.6478 11.592 11.0294 11.3107 11.3107C11.0294 11.592 10.6478 11.75 10.25 11.75H9.25C9.11739 11.75 8.99021 11.8027 8.89645 11.8964C8.80268 11.9902 8.75 12.1174 8.75 12.25C8.75 12.3826 8.80268 12.5098 8.89645 12.6036C8.99021 12.6973 9.11739 12.75 9.25 12.75H10.25C10.913 12.75 11.5489 12.4866 12.0178 12.0178C12.4866 11.5489 12.75 10.913 12.75 10.25V9.25ZM3.75 6.25C3.61739 6.25 3.49021 6.30268 3.39645 6.39645C3.30268 6.49021 3.25 6.61739 3.25 6.75C3.25 6.88261 3.30268 7.00979 3.39645 7.10355C3.49021 7.19732 3.61739 7.25 3.75 7.25H9.75C9.88261 7.25 10.0098 7.19732 10.1036 7.10355C10.1973 7.00979 10.25 6.88261 10.25 6.75C10.25 6.61739 10.1973 6.49021 10.1036 6.39645C10.0098 6.30268 9.88261 6.25 9.75 6.25H3.75Z" fill="black"/>
</svg>
