<svg width="15" height="17" viewBox="0 0 15 17" fill="none" xmlns="http://www.w3.org/2000/svg">
<path d="M7.49998 0.385406C8.15717 0.385363 8.78947 0.636804 9.26716 1.08815C9.74486 1.53949 10.0317 2.15652 10.0689 2.81266L10.0729 2.95832H14.2291C14.3796 2.95837 14.5244 3.01552 14.6343 3.11822C14.7442 3.22092 14.8111 3.36152 14.8213 3.5116C14.8316 3.66169 14.7845 3.81007 14.6896 3.92677C14.5946 4.04347 14.4589 4.11978 14.3099 4.14028L14.2291 4.14582H13.599L12.5856 14.4533C12.5349 14.9672 12.3031 15.4463 11.9317 15.8051C11.5603 16.1638 11.0735 16.3789 10.5582 16.4119L10.4189 16.4167H4.5811C4.06451 16.4166 3.56476 16.2329 3.17115 15.8983C2.77755 15.5638 2.51574 15.1001 2.43252 14.5903L2.41431 14.4525L1.40019 4.14582H0.770813C0.627333 4.14582 0.488709 4.09386 0.380576 3.99955C0.272444 3.90524 0.202118 3.77497 0.182605 3.63282L0.177063 3.55207C0.177069 3.40859 0.22903 3.26997 0.323337 3.16184C0.417644 3.0537 0.547916 2.98338 0.690063 2.96386L0.770813 2.95832H4.92706C4.92706 2.27594 5.19814 1.62151 5.68065 1.139C6.16317 0.656481 6.8176 0.385406 7.49998 0.385406ZM12.4059 4.14582H2.59323L3.59627 14.3362C3.61848 14.5635 3.71868 14.7762 3.87986 14.9381C4.04105 15.1 4.25329 15.2012 4.48056 15.2244L4.5811 15.2292H10.4189C10.8939 15.2292 11.2968 14.8927 11.3886 14.4359L11.4045 14.3362L12.4051 4.14582H12.4059ZM8.8854 6.32291C9.02888 6.32291 9.1675 6.37487 9.27563 6.46918C9.38377 6.56349 9.45409 6.69376 9.4736 6.83591L9.47915 6.91666V12.4583C9.4791 12.6088 9.42195 12.7536 9.31925 12.8635C9.21655 12.9734 9.07595 13.0403 8.92587 13.0505C8.77578 13.0608 8.6274 13.0137 8.5107 12.9187C8.394 12.8238 8.31769 12.6881 8.29719 12.5391L8.29165 12.4583V6.91666C8.29165 6.75918 8.3542 6.60816 8.46555 6.49681C8.5769 6.38546 8.72792 6.32291 8.8854 6.32291ZM6.11456 6.32291C6.25804 6.32291 6.39667 6.37487 6.5048 6.46918C6.61293 6.56349 6.68326 6.69376 6.70277 6.83591L6.70831 6.91666V12.4583C6.70827 12.6088 6.65112 12.7536 6.54842 12.8635C6.44572 12.9734 6.30512 13.0403 6.15503 13.0505C6.00495 13.0608 5.85656 13.0137 5.73987 12.9187C5.62317 12.8238 5.54686 12.6881 5.52635 12.5391L5.52081 12.4583V6.91666C5.52081 6.75918 5.58337 6.60816 5.69472 6.49681C5.80607 6.38546 5.95709 6.32291 6.11456 6.32291ZM7.49998 1.57291C7.15229 1.57292 6.81731 1.70367 6.56154 1.93919C6.30578 2.17472 6.14792 2.49781 6.11931 2.84432L6.11456 2.95832H8.8854C8.8854 2.59089 8.73943 2.2385 8.47962 1.97869C8.2198 1.71887 7.86741 1.57291 7.49998 1.57291Z" fill="#888888"/>
</svg>
