<svg width="18" height="17" viewBox="0 0 18 17" fill="none" xmlns="http://www.w3.org/2000/svg">
<path d="M17.8808 8.09257C17.1551 6.56372 16.2915 5.31686 15.29 4.35198L14.2397 5.40232C15.0962 6.22083 15.8422 7.2916 16.4873 8.62516C14.7698 12.18 12.3318 13.8686 8.99999 13.8686C7.99989 13.8686 7.07871 13.7146 6.23646 13.4066L5.09839 14.5447C6.26818 15.0848 7.56871 15.3549 8.99999 15.3549C12.9676 15.3549 15.9279 13.2885 17.8808 9.1557C17.9593 8.98949 18 8.80795 18 8.62413C18 8.44031 17.9593 8.25878 17.8808 8.09257ZM16.5685 1.47347L15.6884 0.592411C15.6731 0.577056 15.6549 0.564875 15.6348 0.556565C15.6148 0.548254 15.5933 0.543976 15.5716 0.543976C15.5499 0.543976 15.5284 0.548254 15.5084 0.556565C15.4883 0.564875 15.4701 0.577056 15.4548 0.592411L13.197 2.84915C11.9522 2.21333 10.5532 1.89542 8.99999 1.89542C5.03233 1.89542 2.07207 3.96182 0.119206 8.09463C0.0407101 8.26084 0 8.44238 0 8.6262C0 8.81001 0.0407101 8.99155 0.119206 9.15776C0.899388 10.801 1.83866 12.1181 2.93703 13.1091L0.752545 15.293C0.721597 15.3239 0.704213 15.3659 0.704213 15.4097C0.704213 15.4535 0.721597 15.4955 0.752545 15.5265L1.63381 16.4077C1.66478 16.4387 1.70677 16.4561 1.75055 16.4561C1.79433 16.4561 1.83632 16.4387 1.86729 16.4077L16.5685 1.70715C16.5838 1.69182 16.596 1.6736 16.6043 1.65355C16.6126 1.63351 16.6169 1.61202 16.6169 1.59031C16.6169 1.56861 16.6126 1.54712 16.6043 1.52707C16.596 1.50702 16.5838 1.48881 16.5685 1.47347ZM1.51263 8.62516C3.23223 5.07037 5.67021 3.38174 8.99999 3.38174C10.1259 3.38174 11.1496 3.57497 12.0783 3.96781L10.6271 5.41904C9.93982 5.05234 9.15287 4.91624 8.38235 5.03083C7.61183 5.14542 6.89854 5.50463 6.34771 6.05546C5.79688 6.60629 5.43767 7.31958 5.32308 8.0901C5.20849 8.86062 5.34459 9.64756 5.71129 10.3348L3.98922 12.0569C3.03612 11.2157 2.21451 10.076 1.51263 8.62516ZM6.60536 8.62516C6.60572 8.26115 6.69194 7.90235 6.85702 7.57792C7.0221 7.25349 7.26138 6.97257 7.55543 6.75799C7.84948 6.54341 8.18999 6.40122 8.54932 6.34296C8.90864 6.28471 9.27664 6.31203 9.62342 6.42272L6.71497 9.33117C6.64207 9.10293 6.60509 8.86476 6.60536 8.62516Z" fill="#888888"/>
<path d="M8.91742 10.9372C8.84599 10.9372 8.7756 10.9339 8.70582 10.9275L7.61544 12.0179C8.27126 12.2691 8.98579 12.3249 9.67265 12.1786C10.3595 12.0323 10.9893 11.6902 11.4859 11.1936C11.9825 10.6971 12.3246 10.0673 12.4709 9.3804C12.6171 8.69354 12.5613 7.97901 12.3102 7.32319L11.2198 8.41357C11.2262 8.48334 11.2295 8.55374 11.2295 8.62516C11.2296 8.92883 11.1699 9.22956 11.0538 9.51014C10.9377 9.79073 10.7674 10.0457 10.5527 10.2604C10.3379 10.4751 10.083 10.6454 9.80239 10.7616C9.52181 10.8777 9.22109 10.9374 8.91742 10.9372Z" fill="#888888"/>
</svg>
