<svg width="15" height="15" viewBox="0 0 15 15" fill="none" xmlns="http://www.w3.org/2000/svg">
<path d="M5.99962 3.70612e-08C5.04469 0.000136741 4.10358 0.228157 3.25451 0.665111C2.40543 1.10206 1.67292 1.73533 1.11784 2.51228C0.562767 3.28924 0.201158 4.18743 0.0630697 5.13222C-0.0750187 6.07702 0.0144018 7.04112 0.323899 7.94441C0.633397 8.8477 1.15403 9.66408 1.84254 10.3257C2.53104 10.9873 3.36753 11.4751 4.28249 11.7485C5.19744 12.0219 6.16444 12.073 7.10311 11.8975C8.04178 11.722 8.92502 11.3251 9.67941 10.7397L13.7192 14.7806C13.8601 14.9212 14.051 15.0001 14.2501 15C14.4491 14.9999 14.6399 14.9207 14.7806 14.7798C14.9212 14.639 15.0001 14.4481 15 14.2491C14.9999 14.0501 14.9207 13.8592 14.7798 13.7186L10.74 9.67923C11.4286 8.79235 11.8545 7.73005 11.9693 6.61314C12.0841 5.49623 11.8832 4.36952 11.3893 3.36114C10.8955 2.35276 10.1285 1.50318 9.17574 0.908993C8.22295 0.314811 7.12253 -0.000124737 5.99962 3.70612e-08ZM1.49926 5.99983C1.49926 4.80639 1.9734 3.66183 2.81739 2.81794C3.66137 1.97405 4.80605 1.49996 5.99962 1.49996C7.19319 1.49996 8.33787 1.97405 9.18185 2.81794C10.0258 3.66183 10.5 4.80639 10.5 5.99983C10.5 7.19327 10.0258 8.33783 9.18185 9.18172C8.33787 10.0256 7.19319 10.4997 5.99962 10.4997C4.80605 10.4997 3.66137 10.0256 2.81739 9.18172C1.9734 8.33783 1.49926 7.19327 1.49926 5.99983Z" fill="#888888"/>
</svg>
