<svg width="18" height="15" viewBox="0 0 18 15" fill="none" xmlns="http://www.w3.org/2000/svg">
<path d="M17.8808 6.96741C15.9238 2.84493 12.9656 0.770264 8.99999 0.770264C5.03233 0.770264 2.0762 2.84492 0.119206 6.96948C0.0407101 7.13569 0 7.31723 0 7.50104C0 7.68486 0.0407101 7.8664 0.119206 8.03261C2.0762 12.1551 5.0344 14.2298 8.99999 14.2298C12.9677 14.2298 15.9238 12.1551 17.8808 8.03055C18.0397 7.69612 18.0397 7.30803 17.8808 6.96741ZM8.99999 12.7434C5.67021 12.7434 3.23223 11.0548 1.51264 7.50001C3.23223 3.94522 5.67021 2.25659 8.99999 2.25659C12.3298 2.25659 14.7678 3.94522 16.4874 7.50001C14.7698 11.0548 12.3318 12.7434 8.99999 12.7434ZM8.91742 3.86677C6.91088 3.86677 5.28418 5.49347 5.28418 7.50001C5.28418 9.50655 6.91088 11.1332 8.91742 11.1332C10.924 11.1332 12.5507 9.50655 12.5507 7.50001C12.5507 5.49347 10.924 3.86677 8.91742 3.86677ZM8.91742 9.81207C7.6396 9.81207 6.60536 8.77784 6.60536 7.50001C6.60536 6.22219 7.6396 5.18795 8.91742 5.18795C10.1952 5.18795 11.2295 6.22219 11.2295 7.50001C11.2295 8.77784 10.1952 9.81207 8.91742 9.81207Z" fill="#888888"/>
</svg>
