<svg width="10" height="15" viewBox="0 0 10 15" fill="none" xmlns="http://www.w3.org/2000/svg">
<path d="M9.86161 4.8039C9.96798 4.95612 10.0158 5.14484 9.99541 5.3324C9.97506 5.51996 9.88807 5.69257 9.75182 5.81578C9.61556 5.93899 9.44006 6.00373 9.26033 5.99708C9.0806 5.99044 8.90987 5.9129 8.78221 5.77994L5 1.8098L1.21779 5.77994L1.13777 5.85294C0.992757 5.9646 0.812969 6.01475 0.634285 5.99338C0.455601 5.97202 0.291163 5.88071 0.173788 5.73769C0.0564141 5.59466 -0.00526312 5.41044 0.001066 5.22178C0.00739512 5.03312 0.081265 4.85391 0.207933 4.7199L4.49507 0.21974L4.5751 0.146738C4.71273 0.04002 4.88229 -0.0113067 5.05292 0.00209021C5.22356 0.0154872 5.38395 0.0927181 5.50493 0.21974L9.79207 4.7199L9.86161 4.8039ZM0.138386 10.1961C0.0320165 10.0439 -0.01576 9.85516 0.00459213 9.6676C0.0249442 9.48003 0.111928 9.30743 0.248183 9.18422C0.384438 9.06101 0.559943 8.99627 0.739671 9.00292C0.919399 9.00956 1.09013 9.0871 1.21779 9.22006L5 13.1902L8.78221 9.22006L8.86224 9.14706C9.00724 9.0354 9.18703 8.98525 9.36572 9.00662C9.5444 9.02798 9.70884 9.11929 9.82621 9.26231C9.94359 9.40534 10.0053 9.58956 9.99893 9.77822C9.9926 9.96688 9.91873 10.1461 9.79207 10.2801L5.50493 14.7803L5.4249 14.8533C5.28727 14.96 5.11772 15.0113 4.94708 14.9979C4.77644 14.9845 4.61605 14.9073 4.49507 14.7803L0.207933 10.2801L0.138386 10.1961Z" fill="#888888"/>
</svg>
