<svg width="20" height="20" viewBox="0 0 20 20" fill="none" xmlns="http://www.w3.org/2000/svg">
<path d="M10 13.75C10.9946 13.75 11.9484 13.3549 12.6517 12.6517C13.3549 11.9484 13.75 10.9946 13.75 10C13.75 9.00544 13.3549 8.05161 12.6517 7.34835C11.9484 6.64509 10.9946 6.25 10 6.25C9.00544 6.25 8.05161 6.64509 7.34835 7.34835C6.64509 8.05161 6.25 9.00544 6.25 10C6.25 10.9946 6.64509 11.9484 7.34835 12.6517C8.05161 13.3549 9.00544 13.75 10 13.75ZM10.625 0.625C10.625 0.45924 10.5592 0.300269 10.4419 0.183058C10.3247 0.0658481 10.1658 0 10 0C9.83424 0 9.67527 0.0658481 9.55806 0.183058C9.44085 0.300269 9.375 0.45924 9.375 0.625V2.525C7.60773 2.6728 5.94998 3.44196 4.69597 4.69597C3.44196 5.94998 2.6728 7.60773 2.525 9.375H0.625C0.45924 9.375 0.300269 9.44085 0.183058 9.55806C0.0658481 9.67527 0 9.83424 0 10C0 10.1658 0.0658481 10.3247 0.183058 10.4419C0.300269 10.5592 0.45924 10.625 0.625 10.625H2.525C2.6728 12.3923 3.44196 14.05 4.69597 15.304C5.94998 16.558 7.60773 17.3272 9.375 17.475V19.375C9.375 19.5408 9.44085 19.6997 9.55806 19.8169C9.67527 19.9342 9.83424 20 10 20C10.1658 20 10.3247 19.9342 10.4419 19.8169C10.5592 19.6997 10.625 19.5408 10.625 19.375V17.475C12.3922 17.327 14.0498 16.5577 15.3038 15.3038C16.5577 14.0498 17.327 12.3922 17.475 10.625H19.375C19.5408 10.625 19.6997 10.5592 19.8169 10.4419C19.9342 10.3247 20 10.1658 20 10C20 9.83424 19.9342 9.67527 19.8169 9.55806C19.6997 9.44085 19.5408 9.375 19.375 9.375H17.475C17.3272 7.60773 16.558 5.94998 15.304 4.69597C14.05 3.44196 12.3923 2.6728 10.625 2.525V0.625ZM10 16.25C8.3424 16.25 6.75269 15.5915 5.58058 14.4194C4.40848 13.2473 3.75 11.6576 3.75 10C3.75 8.3424 4.40848 6.75269 5.58058 5.58058C6.75269 4.40848 8.3424 3.75 10 3.75C11.6576 3.75 13.2473 4.40848 14.4194 5.58058C15.5915 6.75269 16.25 8.3424 16.25 10C16.25 11.6576 15.5915 13.2473 14.4194 14.4194C13.2473 15.5915 11.6576 16.25 10 16.25Z" fill="#888888"/>
</svg>
