<svg width="56" height="56" viewBox="0 0 56 56" fill="none" xmlns="http://www.w3.org/2000/svg">
<path d="M44.8723 31.7961C44.1722 31.7961 43.5009 32.0742 43.0058 32.5692C42.5108 33.0642 42.2327 33.7356 42.2327 34.4357V35.4387L38.3262 31.5322C36.9468 30.1637 35.0825 29.3958 33.1395 29.3958C31.1965 29.3958 29.3322 30.1637 27.9528 31.5322L26.1051 33.3798L19.559 26.8338C18.1604 25.5024 16.3033 24.7598 14.3723 24.7598C12.4413 24.7598 10.5843 25.5024 9.18562 26.8338L5.27909 30.7403V15.9588C5.27909 15.2588 5.55719 14.5874 6.0522 14.0924C6.54721 13.5974 7.21859 13.3193 7.91864 13.3193H26.3955C27.0955 13.3193 27.7669 13.0412 28.2619 12.5462C28.7569 12.0512 29.035 11.3798 29.035 10.6797C29.035 9.97969 28.7569 9.30831 28.2619 8.8133C27.7669 8.31829 27.0955 8.0402 26.3955 8.0402H7.91864C5.81849 8.0402 3.80435 8.87448 2.31932 10.3595C0.834283 11.8445 0 13.8587 0 15.9588V47.6334C0 49.7336 0.834283 51.7477 2.31932 53.2327C3.80435 54.7178 5.81849 55.552 7.91864 55.552H39.5932C41.6933 55.552 43.7075 54.7178 45.1925 53.2327C46.6776 51.7477 47.5118 49.7336 47.5118 47.6334V34.4357C47.5118 33.7356 47.2337 33.0642 46.7387 32.5692C46.2437 32.0742 45.5723 31.7961 44.8723 31.7961ZM7.91864 50.2729C7.21859 50.2729 6.54721 49.9949 6.0522 49.4998C5.55719 49.0048 5.27909 48.3335 5.27909 47.6334V38.2102L12.9338 30.5555C13.3216 30.186 13.8367 29.9799 14.3723 29.9799C14.908 29.9799 15.4231 30.186 15.8109 30.5555L24.1782 38.9229L35.5283 50.2729H7.91864ZM42.2327 47.6334C42.2289 48.1387 42.0623 48.6293 41.7576 49.0324L29.8533 37.0752L31.701 35.2275C31.8902 35.0344 32.1161 34.8809 32.3653 34.7762C32.6146 34.6715 32.8823 34.6175 33.1527 34.6175C33.4231 34.6175 33.6908 34.6715 33.9401 34.7762C34.1893 34.8809 34.4152 35.0344 34.6045 35.2275L42.2327 42.9086V47.6334ZM54.665 8.80567L46.7464 0.887026C46.4953 0.64672 46.1993 0.458349 45.8753 0.332722C45.2327 0.0687193 44.5119 0.0687193 43.8693 0.332722C43.5453 0.458349 43.2492 0.64672 42.9982 0.887026L35.0796 8.80567C34.5825 9.3027 34.3033 9.97683 34.3033 10.6797C34.3033 11.3827 34.5825 12.0568 35.0796 12.5538C35.5766 13.0509 36.2507 13.3301 36.9537 13.3301C37.6566 13.3301 38.3307 13.0509 38.8277 12.5538L42.2327 9.12241V23.8775C42.2327 24.5775 42.5108 25.2489 43.0058 25.7439C43.5009 26.2389 44.1722 26.517 44.8723 26.517C45.5723 26.517 46.2437 26.2389 46.7387 25.7439C47.2337 25.2489 47.5118 24.5775 47.5118 23.8775V9.12241L50.9169 12.5538C51.1622 12.8012 51.4542 12.9976 51.7758 13.1316C52.0975 13.2656 52.4425 13.3346 52.7909 13.3346C53.1394 13.3346 53.4844 13.2656 53.806 13.1316C54.1277 12.9976 54.4196 12.8012 54.665 12.5538C54.9124 12.3084 55.1088 12.0165 55.2428 11.6949C55.3768 11.3732 55.4458 11.0282 55.4458 10.6797C55.4458 10.3313 55.3768 9.98629 55.2428 9.66464C55.1088 9.34298 54.9124 9.05105 54.665 8.80567Z" fill="#555555"/>
</svg>
