<svg width="20" height="21" viewBox="0 0 20 21" fill="none" xmlns="http://www.w3.org/2000/svg">
<path fill-rule="evenodd" clip-rule="evenodd" d="M10 0.5C4.47727 0.5 0 4.97727 0 10.5C0 16.0227 4.47727 20.5 10 20.5C15.5227 20.5 20 16.0227 20 10.5C20 4.97727 15.5227 0.5 10 0.5ZM14.3345 8.80909C14.4144 8.71786 14.4751 8.61158 14.5133 8.49652C14.5514 8.38145 14.5661 8.25992 14.5566 8.13908C14.5471 8.01823 14.5135 7.90051 14.4578 7.79284C14.4021 7.68517 14.3254 7.58973 14.2323 7.51213C14.1392 7.43453 14.0315 7.37633 13.9155 7.34097C13.7996 7.3056 13.6777 7.29378 13.5572 7.30621C13.4366 7.31863 13.3197 7.35504 13.2134 7.4133C13.1071 7.47156 13.0135 7.5505 12.9382 7.64545L9.02909 12.3355L7.00636 10.3118C6.83491 10.1462 6.60527 10.0546 6.36691 10.0567C6.12855 10.0587 5.90054 10.1543 5.73198 10.3229C5.56343 10.4914 5.46782 10.7195 5.46575 10.9578C5.46368 11.1962 5.55531 11.4258 5.72091 11.5973L8.44818 14.3245C8.53751 14.4138 8.64445 14.4835 8.7622 14.5291C8.87994 14.5748 9.00591 14.5954 9.13206 14.5897C9.25822 14.584 9.3818 14.552 9.49492 14.4959C9.60804 14.4397 9.70823 14.3606 9.78909 14.2636L14.3345 8.80909Z" fill="#FBBD08"/>
</svg>
