<svg width="21" height="20" viewBox="0 0 21 20" fill="none" xmlns="http://www.w3.org/2000/svg">
<path d="M6.5625 9.1875C6.5625 9.5356 6.42422 9.86944 6.17808 10.1156C5.93194 10.3617 5.5981 10.5 5.25 10.5C4.9019 10.5 4.56806 10.3617 4.32192 10.1156C4.07578 9.86944 3.9375 9.5356 3.9375 9.1875C3.9375 8.8394 4.07578 8.50556 4.32192 8.25942C4.56806 8.01328 4.9019 7.875 5.25 7.875C5.5981 7.875 5.93194 8.01328 6.17808 8.25942C6.42422 8.50556 6.5625 8.8394 6.5625 9.1875ZM11.8125 9.1875C11.8125 9.5356 11.6742 9.86944 11.4281 10.1156C11.1819 10.3617 10.8481 10.5 10.5 10.5C10.1519 10.5 9.81806 10.3617 9.57192 10.1156C9.32578 9.86944 9.1875 9.5356 9.1875 9.1875C9.1875 8.8394 9.32578 8.50556 9.57192 8.25942C9.81806 8.01328 10.1519 7.875 10.5 7.875C10.8481 7.875 11.1819 8.01328 11.4281 8.25942C11.6742 8.50556 11.8125 8.8394 11.8125 9.1875ZM15.75 10.5C16.0981 10.5 16.4319 10.3617 16.6781 10.1156C16.9242 9.86944 17.0625 9.5356 17.0625 9.1875C17.0625 8.8394 16.9242 8.50556 16.6781 8.25942C16.4319 8.01328 16.0981 7.875 15.75 7.875C15.4019 7.875 15.0681 8.01328 14.8219 8.25942C14.5758 8.50556 14.4375 8.8394 14.4375 9.1875C14.4375 9.5356 14.5758 9.86944 14.8219 10.1156C15.0681 10.3617 15.4019 10.5 15.75 10.5Z" fill="black"/>
<path d="M2.84156 19.4289L2.86781 19.4237C5.26969 18.9473 6.73706 18.3186 7.41956 17.9734C8.42439 18.2414 9.46004 18.3764 10.5 18.375C16.2986 18.375 21 14.2616 21 9.1875C21 4.11338 16.2986 0 10.5 0C4.70137 0 0 4.11338 0 9.1875C0 11.4975 0.975187 13.6106 2.58562 15.225C2.47296 16.262 2.24221 17.2827 1.89787 18.2674L1.89394 18.2818C1.79608 18.5638 1.68928 18.8427 1.57369 19.1179C1.47 19.362 1.67081 19.635 1.932 19.593C2.23606 19.5432 2.53928 19.4885 2.84156 19.4289ZM3.89156 15.3497C3.90995 15.1575 3.88572 14.9637 3.82061 14.782C3.7555 14.6003 3.65111 14.4351 3.51487 14.2984C2.12363 12.9019 1.3125 11.1143 1.3125 9.1875C1.3125 4.998 5.25525 1.3125 10.5 1.3125C15.7448 1.3125 19.6875 4.998 19.6875 9.1875C19.6875 13.3783 15.7448 17.0625 10.5 17.0625C9.57482 17.0638 8.65346 16.9438 7.7595 16.7055C7.4471 16.6218 7.11478 16.6564 6.82631 16.8026C6.31838 17.0599 5.19881 17.5508 3.36919 17.9747C3.62444 17.1178 3.79932 16.239 3.89156 15.3497Z" fill="black"/>
</svg>
