<svg width="11" height="11" viewBox="0 0 11 11" fill="none" xmlns="http://www.w3.org/2000/svg">
<path d="M4.88211 7.32962L6.7607 7.34423C6.7607 7.34423 6.61117 7.82978 6.48742 8.02056C6.28547 8.32993 6.18492 8.48806 6.09898 8.80517C5.96578 9.29329 5.97695 9.66884 5.97695 9.66884C5.97695 9.66884 6.08094 9.63274 6.20727 9.66884C6.36109 9.71266 6.44445 9.81493 6.4307 9.87766C6.41781 9.93352 6.2468 9.89571 6.1282 10.0143C6.03453 10.108 5.99844 10.2738 5.98383 10.3813C5.96922 10.4895 5.95461 10.6262 5.75352 10.6545C5.55156 10.6838 5.24992 10.7052 5.18461 10.6038C5.12016 10.5033 5.15539 8.74673 5.15539 8.74673L4.88211 7.32962V7.32962Z" fill="#307D31"/>
<path d="M4.86063 6.94031C4.82453 7.00476 3.97375 7.15773 3.97375 7.15773C3.97375 7.15773 3.6893 7.30984 3.58188 7.80656C3.52344 8.07554 3.53633 8.62039 3.48563 8.81117C3.41344 9.08445 3.11094 9.24343 3.12555 9.30788C3.14016 9.37234 3.40398 9.36804 3.60766 9.27867C4.06828 9.07671 4.14906 8.65906 4.29859 8.29984C4.44297 7.95437 4.71625 7.77304 4.71625 7.77304C4.71625 7.77304 4.6518 8.02398 4.6793 8.3007C4.7025 8.53874 4.77727 8.8421 4.6793 9.13687C4.58563 9.41789 4.45414 9.58718 4.50656 9.61296C4.54609 9.63187 5.01531 9.5846 5.20266 9.17382C5.40977 8.72007 5.42437 8.34796 5.54812 8.08156C5.68477 7.78679 5.94516 7.66132 5.94516 7.66132C5.94516 7.66132 6.12992 7.7696 6.35594 8.08585C6.60773 8.4382 6.81828 8.73468 6.95406 8.91687C7.27203 9.34484 7.71289 9.47976 7.72664 9.40757C7.74813 9.29242 7.51437 9.10765 7.46711 8.88249C7.35109 8.3282 7.51008 8.06265 7.37859 7.63726C7.18953 7.02281 6.74352 7.01164 6.58883 6.98242C6.55273 6.97726 4.86063 6.94031 4.86063 6.94031V6.94031Z" fill="#5C9823"/>
<path d="M4.0657 3.81048C3.96859 3.72368 2.53 2.67525 2.53 2.67525L2.50852 2.03759C2.50852 2.03759 2.15617 1.37157 2.5618 0.875715C2.91414 0.445168 3.38422 0.5672 3.38422 0.5672C3.38422 0.5672 3.61969 0.270715 4.03047 0.25009C4.55555 0.22345 4.81164 0.665168 4.81164 0.665168L7.17922 1.05447L8.50867 1.919C8.50867 1.919 8.70547 1.8554 8.86875 1.97056C9.03891 2.09001 8.98305 2.34095 8.96414 2.45353C8.9461 2.56095 7.18953 3.96259 7.18953 3.96259L7.37344 6.70915L6.75984 7.39407C6.75984 7.39407 6.67391 7.47829 6.49774 7.50064C6.39547 7.51353 6.26398 7.47228 6.26398 7.47228L5.88156 6.374L4.0657 3.81048Z" fill="#96010C"/>
<path d="M7.1457 0.58952L6.82602 0.613583L6.60172 0.801786L6.68164 1.16358C6.68164 1.16358 6.69195 1.43429 6.47883 1.56405C6.2657 1.69382 5.84719 1.90694 5.84719 1.90694L5.55844 2.38476C5.55844 2.38476 5.37281 2.32374 5.07031 2.16819C4.78758 2.0221 4.42578 1.68866 4.42578 1.68866L3.77867 1.64483C3.77867 1.64483 3.65492 1.63366 3.55094 1.74366C3.40141 1.90351 3.45469 2.2421 3.74773 2.55233C4.02961 2.85054 4.63977 3.21405 4.77555 3.3146C4.91133 3.41515 5.11844 3.54405 5.23617 3.61022C5.34961 3.67382 5.48539 3.76491 5.54469 3.75374C5.60398 3.74171 5.69164 3.53976 5.96922 3.34468C6.2468 3.1496 6.51836 2.9846 6.9618 2.83077C7.40523 2.67694 7.83062 2.49991 7.96039 2.41741C8.09016 2.33491 7.91312 1.77374 7.75328 1.43085C7.59344 1.08796 7.15687 0.554286 7.1457 0.58952V0.58952Z" fill="#AF0C1B"/>
<path d="M5.59195 2.06078C5.48281 2.20515 5.50344 2.37359 5.50344 2.37359C5.50344 2.37359 5.74148 2.51625 5.97609 2.59789C6.40148 2.7457 7.35883 2.70445 7.81945 2.49734C8.28008 2.29023 8.50523 2.11148 8.5757 1.89492C8.6582 1.64054 8.72695 1.12664 8.23195 0.730465C7.66477 0.275856 6.80883 0.524215 6.80883 0.642809C6.80883 0.761403 7.15172 0.666872 7.15172 1.09742C7.15172 1.52797 6.77359 1.78836 6.38945 1.84164C6.00531 1.89492 5.75695 1.84164 5.59195 2.06078V2.06078Z" fill="#DB132C"/>
<path d="M3.63 1.68868C3.63 1.68868 3.58617 1.51509 3.73055 1.37587C3.94883 1.16275 4.22727 1.05103 4.38625 0.879152C4.54523 0.707277 4.77125 0.381574 5.32555 0.305949C6.14711 0.193371 6.6782 0.501027 6.7968 0.879152C6.91539 1.25728 6.69023 1.38704 6.45992 1.39306C6.22961 1.39907 6.10156 1.29079 5.67961 1.36384C4.96461 1.48759 4.71625 1.87173 4.6518 1.90782C4.58648 1.94306 4.37422 1.81931 4.08461 1.74196C3.87578 1.6861 3.72453 1.69985 3.63 1.68868V1.68868Z" fill="#F71538"/>
<path d="M5.98297 4.15766C5.98297 4.15766 6.12906 3.67211 6.60602 3.36446C7.08383 3.0568 7.43188 3.04907 8.03945 2.77321C8.64703 2.49735 8.85672 2.31602 8.95383 2.25242C9.05352 2.18711 9.14375 2.12782 9.21336 2.24211C9.25805 2.31602 9.1807 2.61852 8.97531 2.91242C8.76563 3.21235 8.55937 3.37735 8.40297 3.89383C8.19586 4.57531 8.59375 5.19492 8.16922 6.28977C8.03172 6.64383 7.70945 6.96781 7.40953 7.17836C7.10961 7.38891 6.67734 7.43617 6.67734 7.43617C6.67734 7.43617 6.83117 7.32875 6.91539 6.93344C6.95664 6.73922 7.01852 6.39461 6.97125 6.02766C6.83633 4.97836 5.98297 4.15766 5.98297 4.15766V4.15766Z" fill="#CD0E1F"/>
<path d="M2.72766 4.01156C2.73797 4.24187 2.62969 5.07976 2.76977 5.75265C2.87977 6.28203 3.42461 7.21789 4.44469 7.49289C5.38312 7.7464 6.38773 7.48515 6.38773 7.48515C6.38773 7.48515 6.76672 6.84492 6.57508 5.91164C6.36625 4.89414 5.34961 4.13789 4.17742 3.55867C2.76891 2.86258 2.51367 2.02383 2.51367 2.02383C2.51367 2.02383 2.05047 1.90265 1.93445 2.31945C1.75656 2.95883 2.71219 3.66351 2.72766 4.01156Z" fill="#E2122D"/>
</svg>
