<?xml version="1.0" standalone="no"?><!DOCTYPE svg PUBLIC "-//W3C//DTD SVG 1.1//EN" "http://www.w3.org/Graphics/SVG/1.1/DTD/svg11.dtd"><svg t="1639317385798" class="icon" viewBox="0 0 1024 1024" version="1.1" xmlns="http://www.w3.org/2000/svg" p-id="731" xmlns:xlink="http://www.w3.org/1999/xlink" width="200" height="200"><defs><style type="text/css"></style></defs><path d="M548.08007111 21.13308445l370.58787556 213.9591111a72.81777778 72.81777778 0 0 1 36.40888888 63.06247112v427.91708444a72.81777778 72.81777778 0 0 1-36.40888888 63.06133334L548.07893333 1003.09219555a72.81777778 72.81777778 0 0 1-72.81777778 0L104.67555555 789.13308445a72.81777778 72.81777778 0 0 1-36.40888888-63.06133334v-427.91822222a72.81777778 72.81777778 0 0 1 36.40888888-63.06133334l370.58673778-213.9591111a72.81777778 72.81777778 0 0 1 72.81777778 0z m-36.40888889 68.31672888L145.63555555 300.78065778V723.44462222l366.03676445 211.33084445 366.03562667-211.33084445V300.78293333l-366.03448889-211.33084444z m0 240.61838222c100.54087111 0 182.04444445 81.50471111 182.04444445 182.04444445 0 100.54087111-81.50357333 182.04444445-182.04444445 182.04444445-100.53973333 0-182.04444445-81.50357333-182.04444444-182.04444445 0-100.53973333 81.50471111-182.04444445 182.04444444-182.04444445z m0 72.81777778c-60.32384 0-109.22666667 48.90168889-109.22666667 109.22666667s48.90282667 109.22666667 109.22666667 109.22666667c60.32497778 0 109.22666667-48.90168889 109.22666667-109.22666667s-48.90168889-109.22666667-109.22666667-109.22666667z" fill="#000000" p-id="732"></path></svg>