<svg width="22" height="22" viewBox="0 0 22 22" fill="none" xmlns="http://www.w3.org/2000/svg">
<path d="M11 5.29729C10.5582 5.29729 10.2 5.65546 10.2 6.09729C10.2 6.53912 10.5582 6.89729 11 6.89729V5.29729ZM11.01 6.89729C11.4518 6.89729 11.81 6.53912 11.81 6.09729C11.81 5.65546 11.4518 5.29729 11.01 5.29729V6.89729ZM9 9.29729C8.55817 9.29729 8.2 9.65546 8.2 10.0973C8.2 10.5391 8.55817 10.8973 9 10.8973V9.29729ZM11 10.0973H11.8C11.8 9.65546 11.4418 9.29729 11 9.29729V10.0973ZM10.2 15.0973C10.2 15.5391 10.5582 15.8973 11 15.8973C11.4418 15.8973 11.8 15.5391 11.8 15.0973H10.2ZM9 14.2973C8.55817 14.2973 8.2 14.6555 8.2 15.0973C8.2 15.5391 8.55817 15.8973 9 15.8973V14.2973ZM13 15.8973C13.4418 15.8973 13.8 15.5391 13.8 15.0973C13.8 14.6555 13.4418 14.2973 13 14.2973V15.8973ZM20.2 11.0973C20.2 16.1783 16.081 20.2973 11 20.2973V21.8973C16.9647 21.8973 21.8 17.062 21.8 11.0973H20.2ZM11 20.2973C5.91898 20.2973 1.8 16.1783 1.8 11.0973H0.2C0.2 17.062 5.03532 21.8973 11 21.8973V20.2973ZM1.8 11.0973C1.8 6.01627 5.91898 1.89729 11 1.89729V0.29729C5.03532 0.29729 0.2 5.13261 0.2 11.0973H1.8ZM11 1.89729C16.081 1.89729 20.2 6.01627 20.2 11.0973H21.8C21.8 5.13261 16.9647 0.29729 11 0.29729V1.89729ZM11 6.89729H11.01V5.29729H11V6.89729ZM9 10.8973H11V9.29729H9V10.8973ZM10.2 10.0973V15.0973H11.8V10.0973H10.2ZM9 15.8973H13V14.2973H9V15.8973Z" fill="black"/>
</svg>
